<svg id="Capa_1" enable-background="new 0 0 497 497" height="512" viewBox="0 0 497 497" width="512" xmlns="http://www.w3.org/2000/svg"><g><path d="m351.314 497h-25.004l-9.427-6.798c-2.761 0-5-2.239-5-5l-5.569-112.34 40.974-1.362 9.026 21.36v99.14c0 2.761-2.239 5-5 5z" fill="#b57f5f"/><path d="m356.31 372.86v20h-25c-2.761 0-5 2.239-5 5v99.14h-15c-2.761 0-5-2.239-5-5v-119.14l25.004-9.19z" fill="#9f6e50"/><path d="m380.814 372.862h-84.004l-7.714-7.128c-8.284 0-15-6.716-15-15l-7.282-30.032h122.005l6.995 19.997v17.162c0 8.285-6.716 15.001-15 15.001z" fill="#5595a2"/><path d="m395.81 320.7v20h-93c-3.314 0-6 2.686-6 6v26.16h-15c-8.28 0-15-6.71-15-15v-37.16l70.1-8.094z" fill="#488089"/><path d="m153.779 48.298c-45.859 0-83.034 37.176-83.034 83.034v189.371h166.069l11.758-188.352c0-40.121-40.213-74.614-78.043-82.363-5.411-1.109-11.012-1.69-16.75-1.69z" fill="#dce6eb"/><path d="m248.5 316.691-234.404.255c-5.523 0-10-4.477-10-10l1.319-6.34c0-5.523-1.438-8.426 4.085-8.426l7.5-4.834h227.819z" fill="#5595a2"/><path d="m236.81 304.7 10.052 8.758-10.052 7.242h-226.81c-5.52 0-10-4.47-10-10v-13.35c0-5.53 4.48-10 10-10h7v7.35c0 5.53 4.48 10 10 10z" fill="#488089"/><path d="m300.178 132.347h-255c-5.523 0-5.636 5.886-5.636 11.409l.638 128.594c0 5.523 4.477 10 10 10h250c5.523 0 10-4.477 10-10l-.002-130.003c0-5.523-4.477-10-10-10z" fill="#f7f9fa"/><path d="m310.18 267.35v10c0 5.52-4.48 10-10 10l-127.502-7.424-127.498 7.424c-5.52 0-10-4.48-10-10v-135c0-5.53 4.48-10 10-10h10v135z" fill="#e9edf1"/><path d="m172.678 196.347-127.5 91 117.939-9.997 137.061 9.997z" fill="#e9edf1"/><path d="m300.18 287.35h-255l28.02-20h198.96z" fill="#dce6eb"/><path d="m310.18 142.35v7.43l-114.26 81.55c-6.83 4.87-14.86 7.45-23.24 7.45s-16.42-2.58-23.24-7.45l-114.26-81.55v-7.43c0-5.53 4.48-10 10-10l122.022 25.363 132.978-25.363c5.52 0 10 4.47 10 10z" fill="#e9edf1"/><path d="m208.81 222.13-12.89 9.2c-6.83 4.87-14.86 7.45-23.24 7.45s-16.42-2.58-23.24-7.45l-12.89-9.2 36.13-25.78z" fill="#dce6eb"/><path d="m184.297 215.054 115.881-82.707h-255l115.881 82.707c6.952 4.962 16.286 4.962 23.238 0z" fill="#f7f9fa"/><path d="m405.612 48.298h-182.032l-32.038 4.394c45.859 0 56.957 30.45 56.957 76.309l3.809 179.011 227.234-.864c5.523 0 10-4.477 10-10l7.458-48.648v-108.815c0-50.472-40.916-91.387-91.388-91.387z" fill="#f7f9fa"/><g fill="#e9edf1"><path d="m497 248.5v62.2c0 5.53-4.48 10-10 10h-250.19v-72.2z"/><path d="m497 248.5v45.2l-5.415 13.906c0 5.53-4.48 10-10 10l-239.489-5-5.286-64.106z"/><path d="m266.81 121.33v199.37h-30v-189.37c0-45.86-37.17-83.03-83.03-83.03h69.8c2.04 1.26 3.29 2.03 3.36 2.08 23.91 14.58 39.87 40.9 39.87 70.95z"/></g><path d="m266.81 287.7v-39.2h-30v45.2 27h30 220.19c5.52 0 10-4.47 10-10v-17h-224.19c-3.314 0-6-2.686-6-6z" fill="#dce6eb"/><path d="m461.33 58.309-79.382 2.691v-61h90c2.761 0 5 2.239 5 5v39l-10.618 9.309c0 2.761-2.239 5-5 5z" fill="#ff8086"/><path d="m476.95 44v12c0 2.761-2.239 5-5 5h-90l-3.344-28.904 3.344-32.096h17v39c0 2.761 2.239 5 5 5z" fill="#e5646e"/><path d="m381.907 0h-16.632l-2.865 5.309c-2.761 0-5 2.239-5 5l.771 118.691h23.726z" fill="#ff8086"/><path d="m372.91 0c-2.76 0-5 2.24-5 5v124h-16v-124c0-2.76 2.24-5 5-5z" fill="#e5646e"/><path d="m396.907 154.5c0-16.569-13.431-30-30-30-4.767 0-9.274 1.112-13.276 3.09-9.909 4.898-8.386 15.108-8.386 26.91 0 16.569 5.092 26.362 21.66 26.362 10.927 0 20.491-2.203 25.736-10.934 2.708-4.508 4.266-9.786 4.266-15.428z" fill="#ff8086"/><path d="m393.64 168.12c-4.96 9.73-15.07 16.38-26.73 16.38-16.57 0-30-13.43-30-30 0-12.41 7.53-23.06 18.27-27.62-2.09 4.09-3.27 8.72-3.27 13.62 0 16.57 13.43 30 30 30 4.16 0 8.13-.85 11.73-2.38z" fill="#e5646e"/></g></svg>