<svg xmlns="http://www.w3.org/2000/svg" viewBox="0 0 409.6 409.6"><defs><style>.b5f2f04a-cb83-45d7-9bb0-0b1f5d8e1636{fill:#efa900;}.ab061785-11f9-4291-b4ac-1fc6a8802bbe{fill:#fefefe;}.fc7b29a1-64ce-4a8b-a9b8-62307399ce59{fill:#b7df80;}.f1604bb9-65c6-4ce7-be5b-9e80ab4f421e{fill:#afdb78;}.aeb70432-121f-411b-aa93-e9d5ce071c99{fill:#b6de81;}.bbbb4095-3675-4539-bb4c-77b319bb2a54{fill:#ffc22f;}</style></defs><title>checkRecurso 2</title><g id="b968c348-9a23-4c30-b95c-771f02307aab" data-name="Capa 2"><g id="f1742619-b652-4755-9574-52ff0b16d2cf" data-name="Capa 4"><path class="b5f2f04a-cb83-45d7-9bb0-0b1f5d8e1636" d="M.0768,193.23v-4.7887c.8879-5.8791.7386-11.8386,1.3454-17.735,1.5092-14.6646,6.0632-28.552,11.4665-42.1333C24.9842,98.1708,43.7219,72.3182,68.0471,50.5977A200.4347,200.4347,0,0,1,129.6156,13.1c2.358-.9136,4.7558-2.7456,7.5473-1.0249,2.3113,2.4468.556,4.45-.8332,6.34A192.0622,192.0622,0,0,0,116.405,51.96a210.9638,210.9638,0,0,0-17.273,59.091,205.437,205.437,0,0,0-1.1757,40.5869,191.4166,191.4166,0,0,0,16.0006,65.519c1.59,3.658,3.2,7.3041,4.985,10.8733.7056,1.4108,1.5375,2.8489.8361,4.5382-2.26,2.4025-3.83.4026-5.2738-1-6.68-6.4865-13.1949-13.14-19.7963-19.7061-2.64-2.6263-5.1521-5.3929-7.9537-7.8442-5.7576-5.0377-12.1777-5.1892-17.2345-.5428a11.9969,11.9969,0,0,0-.9322,16.8757c.7.8016,1.4763,1.5325,2.2288,2.2849,26.995,26.9929,54.1378,53.8407,80.8837,81.0782,6.3986,6.5162,15.74,6.2131,20.5792.1461,1.3455-1.687,2.861-3.6461,5.5647-3.3338,2.46-.2466,4.3237,1.0826,6.16,2.39a196.7947,196.7947,0,0,0,63.5294,29.6518,203.2293,203.2293,0,0,0,42.3748,6.5563c19.6567,1.038,38.8855-1.2243,57.9526-5.6883,4.0121-.9393,7.868-2.4133,11.8733-3.359,1.9068-.45,3.8935-1.2153,5.5432.66,1.0334,2.2891-.5431,3.8831-1.72,5.3566a203.7289,203.7289,0,0,1-23.5316,24.2953,193.6421,193.6421,0,0,1-43.1077,29.0873c-18.4124,9.1723-37.5431,16.1779-58.0778,18.6824-6.1213.7466-12.3333.6977-18.4789,1.3642h-3.1926a10.7034,10.7034,0,0,0-6.385,0H198.811a10.7038,10.7038,0,0,0-6.3851,0h-4.7887c-6.145-.8923-12.3581-.9789-18.5358-1.4194-7.78-.5546-15.1721-2.681-22.5445-4.8421a201.84,201.84,0,0,1-77.3364-42.3481,207.864,207.864,0,0,1-45.8032-56.73A220.9829,220.9829,0,0,1,3.4345,252.2683C1.1558,243.3049,1.2056,234.1422.4688,225.04c-.0834-1.0294.3408-2.1294-.392-3.0771V217.174a10.705,10.705,0,0,0,0-6.385V199.6152A10.7053,10.7053,0,0,0,.0768,193.23Z"/><path class="ab061785-11f9-4291-b4ac-1fc6a8802bbe" d="M136.4527,12.741A180.01,180.01,0,0,0,89.97,36.0884C47.5025,65.4285,19.4672,105.0161,6.287,155.0031A209.12,209.12,0,0,0,.914,185.5468c-.11,1.0037.288,2.1764-.8372,2.8946Q.0768,95.8892.01,3.3371C.006.7405.3458-.002,3.2056,0q201.66.1427,403.32.0206c2.4932-.0013,3.0551.563,3.0538,3.0546q-.1052,201.66.0208,403.32c.002,2.861-.7426,3.1987-3.3379,3.1951q-92.9506-.1293-185.9016-.067c4.91-1.5994,10.084-1.5144,15.121-2.3051a202.16,202.16,0,0,0,100.4328-45.8358,181.6465,181.6465,0,0,0,28.9185-30.08c-.319-2.4571.9891-4.289,2.34-6.1078a200.0249,200.0249,0,0,0,36.0431-82.2193,187.3018,187.3018,0,0,0,3.54-45.9992c-1.9979-36.5572-12.3451-70.4995-32.3918-101.3551-21.8139-33.5755-51.0226-58.55-87.35-75.1428A199.4951,199.4951,0,0,0,229.2226,4.335c-29.2183-3.7591-57.7881-.71-85.8451,7.923C141.0661,12.9692,138.8283,13.523,136.4527,12.741Z"/><path class="ab061785-11f9-4291-b4ac-1fc6a8802bbe" d="M.0768,221.9628c1.71,4.6258,1.4353,9.57,2.2935,14.34,13.4361,74.68,55.089,127.2072,124.291,157.8564,18.8073,8.33,38.7572,12.8268,59.2837,14.5751.6629.0564,1.3317.0887,1.6922.7887q-92.184,0-184.3678.0768c-2.7331.0044-3.2738-.5363-3.2694-3.2694Q.15,314.1469.0768,221.9628Z"/><path class="fc7b29a1-64ce-4a8b-a9b8-62307399ce59" d="M.0768,193.23a6.2736,6.2736,0,0,1,0,6.3851Z"/><path class="f1604bb9-65c6-4ce7-be5b-9e80ab4f421e" d="M.0768,210.789a6.3021,6.3021,0,0,1,0,6.385Z"/><path class="f1604bb9-65c6-4ce7-be5b-9e80ab4f421e" d="M192.4259,409.5232a6.2985,6.2985,0,0,1,6.3851,0Z"/><path class="aeb70432-121f-411b-aa93-e9d5ce071c99" d="M210.7829,409.5232a6.3087,6.3087,0,0,1,6.385,0Z"/><path class="bbbb4095-3675-4539-bb4c-77b319bb2a54" d="M136.4527,12.741a170.85,170.85,0,0,1,42.49-10.192C236.4905-4.0524,288.2344,10.44,333.204,46.9367c39.4069,31.9821,63.9093,73.3465,72.3427,123.5156,9.9112,58.96-3.84,112.3459-39.8845,160.0121a8.6287,8.6287,0,0,1-.8295.8381c-3.4591-.49-6.4728,1.2231-9.6177,2.0971a215.6635,215.6635,0,0,1-48.2007,7.6408c-29.1576,1.33-57.022-3.94-83.9758-14.6164a186.8839,186.8839,0,0,1-39.1246-21.2176c-2.0181-1.4262-3.8625-3.34-6.6-3.46-1.0621-1.6262-.0137-2.7452.9567-3.8536,1.2266-1.4009,2.5785-2.6837,3.8937-4q70.3248-70.3969,140.7173-140.7259a24.372,24.372,0,0,0,4.6591-5.42c2.76-5.1064,1.9955-10.8523-2.003-14.6262a11.9031,11.9031,0,0,0-14.73-1.6028,32.3949,32.3949,0,0,0-6.3726,5.3906Q236.7522,204.5882,169.06,272.26c-6.8111,6.8126-7.0931,6.81-13.9132.001q-16.7928-16.766-33.55-33.5671c-1.411-1.4227-3.5846-2.6282-2.6412-5.2949-3.3845-7.93-7.0031-15.77-10.1047-23.81A191.2675,191.2675,0,0,1,96.58,157.39c-2.1025-23.7525-.88-47.2853,5.16-70.3719A200.3813,200.3813,0,0,1,134.61,17.51C135.6128,16.1591,137.6134,15.0042,136.4527,12.741Z"/><path class="ab061785-11f9-4291-b4ac-1fc6a8802bbe" d="M118.9554,233.3985q20.6591,20.78,41.303,41.5749c1.2849,1.2971,2.3534,1.5415,3.6333.0774.7855-.8987,1.6858-1.6969,2.5319-2.543Q235.378,203.5542,304.3417,134.61a38.3353,38.3353,0,0,1,4.7445-4.244,13.9719,13.9719,0,0,1,18.8573,20.2908,50.6153,50.6153,0,0,1-3.5682,3.756q-72.3278,72.3489-144.6589,144.6942c-.84.8408-1.6038,1.7588-2.4026,2.64-2.0324,1.9032-3.985,3.9021-6.1137,5.6916a13.8715,13.8715,0,0,1-18.2673-.0729c-.8108-.6835-1.5649-1.4376-2.3159-2.1884q-40.729-40.72-81.4633-81.4342c-2.7926-2.7887-5.08-5.7622-5.443-9.8773-.5326-6.03,1.744-10.6913,6.9222-13.7341a12.8163,12.8163,0,0,1,14.9742.7321,79.5554,79.5554,0,0,1,8.1406,7.6Q106.3806,220.9016,118.9554,233.3985Z"/></g></g></svg>